<?xml version="1.0" encoding="utf-8"?>
<!-- Generator: Adobe Illustrator 25.0.0, SVG Export Plug-In . SVG Version: 6.00 Build 0)  -->
<svg version="1.1" id="Layer_1" focusable="false" xmlns="http://www.w3.org/2000/svg" xmlns:xlink="http://www.w3.org/1999/xlink"
	 x="0px" y="0px" viewBox="0 0 511.9 510.5" style="enable-background:new 0 0 511.9 510.5;" xml:space="preserve">
<style type="text/css">
	.st0{fill:#DDDDDD;}
	.st1{fill:#FFFFFF;}
</style>
<rect class="st0" width="511.9" height="510.5"/>
<path class="st1" d="M285.3,173.6c1.3,0,2.4,0.8,2.9,2l8.5,22.7h42.6c3.4,0,6.2,2.8,6.2,6.2v111.4c0,3.4-2.8,6.2-6.2,6.2H178.5
	c-3.4,0-6.2-2.8-6.2-6.2V204.5c0-3.4,2.8-6.2,6.2-6.2h42.6l7.8-20.7c0.9-2.4,3.2-4,5.8-4H285.3 M285.3,161.2h-50.7
	c-7.7,0-14.7,4.8-17.4,12l-4.8,12.7h-34c-10.2,0-18.6,8.3-18.6,18.6v111.4c0,10.2,8.3,18.6,18.6,18.6h160.9
	c10.2,0,18.6-8.3,18.6-18.6V204.5c0-10.2-8.3-18.6-18.6-18.6h-34l-5.5-14.7C297.5,165.2,291.8,161.2,285.3,161.2L285.3,161.2z
	 M258.9,306.6c-25.6,0-46.4-20.8-46.4-46.4s20.8-46.4,46.4-46.4s46.4,20.8,46.4,46.4S284.5,306.6,258.9,306.6z M258.9,226.2
	c-18.8,0-34,15.3-34,34s15.3,34,34,34s34-15.3,34-34S277.6,226.2,258.9,226.2z"/>
</svg>
